name C:/MyDriveSym/Projects/mobilecap/Data\Session20210813_0002\mocap\ForceDataProcessed\walking1_forces.mot
datacolumns 19
datarows 14
range 0.39450000 0.40100000
endheader 
time	R_ground_force_vx	R_ground_force_vy	R_ground_force_vz	R_ground_force_px	R_ground_force_py	R_ground_force_pz	R_ground_torque_x	R_ground_torque_y	R_ground_torque_z	L_ground_force_vx	L_ground_force_vy	L_ground_force_vz	L_ground_force_px	L_ground_force_py	L_ground_force_pz	L_ground_torque_x	L_ground_torque_y	L_ground_torque_z	
          0.39450000	         -1.92898300	        725.73997600	        -13.28496200	          0.26107000	          0.00600000	         -0.14672900	          0.00000000	         -3.47657200	          0.00000000	          0.00000000	          0.00000000	          0.00000000	          0.75098400	          0.00000000	         -0.19684000	          0.00000000	          0.00000000	          0.00000000	
          0.39500000	         -1.74280600	        726.10672100	        -13.29317000	          0.26114200	          0.00600000	         -0.14677500	          0.00000000	         -3.49183700	          0.00000000	          0.00000000	          0.00000000	          0.00000000	          0.75098400	          0.00000000	         -0.19684000	          0.00000000	          0.00000000	          0.00000000	
          0.39550000	         -1.55654800	        726.47360100	        -13.30163400	          0.26121400	          0.00600000	         -0.14682100	          0.00000000	         -3.50707900	          0.00000000	          0.00000000	          0.00000000	          0.00000000	          0.75098400	          0.00000000	         -0.19684000	          0.00000000	          0.00000000	          0.00000000	
          0.39600000	         -1.37020500	        726.84061400	        -13.31035300	          0.26128700	          0.00600000	         -0.14686700	          0.00000000	         -3.52229900	          0.00000000	          0.00000000	          0.00000000	          0.00000000	          0.75098400	          0.00000000	         -0.19684000	          0.00000000	          0.00000000	          0.00000000	
          0.39650000	         -1.18376800	        727.20776100	        -13.31933100	          0.26136000	          0.00600000	         -0.14691300	          0.00000000	         -3.53749400	          0.00000000	          0.00000000	          0.00000000	          0.00000000	          0.75098400	          0.00000000	         -0.19684000	          0.00000000	          0.00000000	          0.00000000	
          0.39700000	         -0.99723300	        727.57504400	        -13.32857000	          0.26143500	          0.00600000	         -0.14695800	          0.00000000	         -3.55266500	          0.00000000	          0.00000000	          0.00000000	          0.00000000	          0.75098400	          0.00000000	         -0.19684000	          0.00000000	          0.00000000	          0.00000000	
          0.39750000	         -0.81059300	        727.94246100	        -13.33807000	          0.26151000	          0.00600000	         -0.14700400	          0.00000000	         -3.56781000	          0.00000000	          0.00000000	          0.00000000	          0.00000000	          0.75098400	          0.00000000	         -0.19684000	          0.00000000	          0.00000000	          0.00000000	
          0.39800000	         -0.62384200	        728.31001400	        -13.34783400	          0.26158600	          0.00600000	         -0.14704900	          0.00000000	         -3.58292800	          0.00000000	          0.00000000	          0.00000000	          0.00000000	          0.75098400	          0.00000000	         -0.19684000	          0.00000000	          0.00000000	          0.00000000	
          0.39850000	         -0.43697300	        728.67770300	        -13.35786400	          0.26166200	          0.00600000	         -0.14709500	          0.00000000	         -3.59801800	          0.00000000	          0.00000000	          0.00000000	          0.00000000	          0.75098400	          0.00000000	         -0.19684000	          0.00000000	          0.00000000	          0.00000000	
          0.39900000	         -0.24998000	        729.04552800	        -13.36816200	          0.26173900	          0.00600000	         -0.14714000	          0.00000000	         -3.61308000	          0.00000000	          0.00000000	          0.00000000	          0.00000000	          0.75098400	          0.00000000	         -0.19684000	          0.00000000	          0.00000000	          0.00000000	
          0.39950000	         -0.06285700	        729.41348800	        -13.37873000	          0.26181700	          0.00600000	         -0.14718500	          0.00000000	         -3.62811200	          0.00000000	          0.00000000	          0.00000000	          0.00000000	          0.75098400	          0.00000000	         -0.19684000	          0.00000000	          0.00000000	          0.00000000	
          0.40000000	          0.12440300	        729.78158500	        -13.38956900	          0.26189600	          0.00600000	         -0.14723000	          0.00000000	         -3.64311400	          0.00000000	          0.00000000	          0.00000000	          0.00000000	          0.75098400	          0.00000000	         -0.19684000	          0.00000000	          0.00000000	          0.00000000	
          0.40050000	          0.31180600	        730.14981700	        -13.40068100	          0.26197500	          0.00600000	         -0.14727500	          0.00000000	         -3.65808400	          0.00000000	          0.00000000	          0.00000000	          0.00000000	          0.75098400	          0.00000000	         -0.19684000	          0.00000000	          0.00000000	          0.00000000	
          0.40100000	          0.49935800	        730.51818600	        -13.41207000	          0.26205500	          0.00600000	         -0.14732000	          0.00000000	         -3.67302200	          0.00000000	          0.00000000	          0.00000000	          0.00000000	          0.75098400	          0.00000000	         -0.19684000	          0.00000000	          0.00000000	          0.00000000	
